<?xml version="1.0" encoding="utf-8"?>
<!-- Generator: Adobe Illustrator 21.0.0, SVG Export Plug-In . SVG Version: 6.00 Build 0)  -->
<svg version="1.1" id="Layer_1" xmlns="http://www.w3.org/2000/svg" xmlns:xlink="http://www.w3.org/1999/xlink" x="0px" y="0px"
	 viewBox="0 0 400 400" style="enable-background:new 0 0 400 400;" xml:space="preserve">
<style type="text/css">
	.st0{fill:#C1C1C1;}
</style>
<path id="rect5222" class="st0" d="M70,7C34,7,5,36,5,72v260c0,36,29,65,65,65h260c36,0,65-29,65-65V72c0-36-29-65-65-65H70z
	 M107.9,84.9c16.5,0,29.8,12.3,29.8,27.5c0,15.2-13.4,27.5-29.8,27.5c-16.4,0-29.8-12.3-29.8-27.5C78.1,97.3,91.4,84.9,107.9,84.9z
	 M262.6,157.4c35.3,0,59.3,21.9,59.3,63.1v98.5h-53.5v-98.5c0-11-6.5-22.1-24-22.1c-29.4,0-29.5,29.6-29.5,40.4v80.3h-53.5V158.6
	h53.5v26.8C214.9,185.3,228,157.4,262.6,157.4L262.6,157.4z M81.2,158.6h53.5v160.5H81.2L81.2,158.6z"/>
</svg>
