<?xml version="1.0" encoding="utf-8"?>
<!-- Generator: Adobe Illustrator 21.0.0, SVG Export Plug-In . SVG Version: 6.00 Build 0)  -->
<svg version="1.1" id="Layer_1" xmlns="http://www.w3.org/2000/svg" xmlns:xlink="http://www.w3.org/1999/xlink" x="0px" y="0px"
	 viewBox="0 0 400 400" style="enable-background:new 0 0 400 400;" xml:space="preserve">
<style type="text/css">
	.st0{fill:#C1C1C1;}
</style>
<path id="rect5234" class="st0" d="M69.3,5C33.1,5,4,34.1,4,70.3v261.3C4,367.9,33.1,397,69.3,397h261.3c36.2,0,65.3-29.1,65.3-65.3
	V70.3C396,34.1,366.9,5,330.7,5H69.3z M312.8,98.4c8.6,0.7,11.1,8.8,9,18.4l-38.2,176.9c-2.5,11.5-11.1,12.9-21.5,5.3l-53.9-39.4
	l-29.6,28.6c-4.6,4.5-13.3,5.8-15.9-2.1l-22.2-68.2l-52.6-16.6c-20.3-6.4-5.8-15.5,1.1-18.2l213.2-82.8
	C306.5,98.8,310,98.2,312.8,98.4L312.8,98.4z M275,135.2c-1.3,0.2-2.8,0.8-4.1,1.6l-120.3,76.2c-0.7,0.4-1.5,0.4-0.8,2.7l19.5,59.7
	l4-40.6c0.1-0.8,0.1-1.3,1-2.1l101.6-91.2C281.4,136.6,278.9,134.5,275,135.2L275,135.2z"/>
</svg>
